{"title":"The.Shawshank.Redemtion.1994.1080p.BluRay.x265.10bit-z97","uid":15983338,"size":1878983102,"categoryP":"video","categoryS":"hd___movies","magnet":"?xt=urn:btih:99adde3d6004d1d16d3f00fd574869fbcca37e9d&amp;dn=The.Shawshank.Redemtion.1994.1080p.BluRay.x265.10bit-z97&amp;tr=udp%3A%2F%2Ftracker.leechers-paradise.org%3A6969&amp;tr=udp%3A%2F%2Fzer0day.ch%3A1337&amp;tr=udp%3A%2F%2Fopen.demonii.com%3A1337&amp;tr=udp%3A%2F%2Ftracker.coppersurfer.tk%3A6969&amp;tr=udp%3A%2F%2Fexodus.desync.com%3A6969","seeders":4,"leechers":2,"uploader":"48848448","files":2,"time":1475930654,"description":"______ _____  ______\r\n                       |___  /|  _  ||___  /\r\n                          / / | |_| |   / / \r\n                         / /  ____ |  / /  \r\n                       ./ /___.___/ /./ /   \r\n                       _____/____/ _/   \r\n\r\n\r\n                         RELEASE NOTES                         \r\n▄▄▄▄▄▄▄▄▄▄▄▄▄▄▄▄▄▄▄▄▄▄▄▄▄▄▄▄▄▄▄▄▄▄▄▄▄▄▄▄▄▄▄▄▄▄▄▄▄▄▄▄▄▄▄▄▄▄▄▄▄▄▄▄▄\r\n\r\n                  The Shawshank Redemtion 1994\r\n            \r\niMDB url                       : imdb.com/title/tt0111161/\r\niMDB Rating                    : 9.3/10 from 1,713,246 votes\r\nRelease                        : 1994 - October 14th\r\nGenre                          : Crime, Drama\r\nSource                         : Retail Blu-ray\r\nSubs                           : ENG/DEN/SWE/NOR/FIN\r\n\r\n                         PLOT SUMMARY                     \r\n▄▄▄▄▄▄▄▄▄▄▄▄▄▄▄▄▄▄▄▄▄▄▄▄▄▄▄▄▄▄▄▄▄▄▄▄▄▄▄▄▄▄▄▄▄▄▄▄▄▄▄▄▄▄▄▄▄▄▄▄▄▄▄▄▄▄\r\n\r\nTwo imprisoned men bond over a number of years, finding solace and\r\neventual redemption through acts of common decency.\r\n\r\nDirector : Frank Darabont\r\nStars    : Tim Robbins, Morgan Freeman, Bob Gunton \r\n\r\n                      RELEASE INFORMATION                 \r\n▄▄▄▄▄▄▄▄▄▄▄▄▄▄▄▄▄▄▄▄▄▄▄▄▄▄▄▄▄▄▄▄▄▄▄▄▄▄▄▄▄▄▄▄▄▄▄▄▄▄▄▄▄▄▄▄▄▄▄▄▄▄▄▄▄▄\r\n\r\nVideo\r\nID                             : 1\r\nFormat                         : HEVC\r\nFormat profile                 : Main   @High\r\nDuration                       : 2h 22mn\r\nBit rate                       : 1 338 Kbps\r\nWidth                          : 1 920 pixels\r\nHeight                         : 1 080 pixels\r\nDisplay aspect ratio           : 16:9\r\nFrame rate mode                : Constant\r\nFrame rate                     : 23.976 fps\r\nColor space                    : YUV\r\nBit depth                      : 10 bits\r\nBits/(Pixel*Frame)             : 0.027\r\nStream size                    : 1.33 GiB (76%)\r\nWriting library                : x265 2.1+12 [64 bit] 10bit\r\nLanguage                       : English\r\n\r\n\r\nAudio\r\nID                             : 2\r\nFormat                         : AC-3\r\nCodec ID                       : A_AC3\r\nDuration                       : 2h 22mn\r\nBit rate mode                  : Constant\r\nBit rate                       : 384 Kbps\r\nChannel(s)                     : 6 channels\r\nChannel positions              : Front: L C R, Side: L R, LFE\r\nSampling rate                  : 48.0 KHz\r\nCompression mode               : Lossy\r\nStream size                    : 392 MiB (22%)\r\nLanguage                       : English","torrent":{"xt":"urn:btih:99adde3d6004d1d16d3f00fd574869fbcca37e9d","amp;dn":"The.Shawshank.Redemtion.1994.1080p.BluRay.x265.10bit-z97","amp;tr":["udp%3A%2F%2Ftracker.leechers-paradise.org%3A6969","udp%3A%2F%2Fzer0day.ch%3A1337","udp%3A%2F%2Fopen.demonii.com%3A1337","udp%3A%2F%2Ftracker.coppersurfer.tk%3A6969","udp%3A%2F%2Fexodus.desync.com%3A6969"],"infoHash":"99adde3d6004d1d16d3f00fd574869fbcca37e9d","infoHashBuffer":{"type":"Buffer","data":[153,173,222,61,96,4,209,209,109,63,0,253,87,72,105,251,204,163,126,157]},"announce":[],"urlList":[]}}